# xmcd
#
# Track frame offsets: 
#        150
#        11391
#        26087
#        35545
#        46786
#        56690
#        67318
#        81346
#        93925
#        103216
#        113454
#        128819
#        139392
#        150633
#        162376
#
# Disc length: 2337 seconds
#
# Revision: 0
# Processed by: cddbd v1.5.2PL0 Copyright (c) Steve Scherf et al.
# Submitted via: ExactAudioCopyFreeDBPlugin 1.0
#
DISCID=c8091f0f
DTITLE=Leo Fontaine - Favorites
DYEAR=2006
DGENRE=Country
TTITLE0=You'll Always Be Mine In My Dreams (Wilf Carter)
TTITLE1=I Could Never Be Ashamed Of You (Hank Williams)
TTITLE2=North Wind (Slim Whitman)
TTITLE3=Time Changes Everything (Bob Wills)
TTITLE4=When The Bees Are In Their Hive (Ron Scott, Angus Walker)
TTITLE5=Sweet Nellie Deane (Wilf Carter)
TTITLE6=Old Love Letters (Porter Wagoner)
TTITLE7=Roses Are Blooming (Doc Williams)
TTITLE8=I Haven't Got the Right To Love You (Mac Wiseman)
TTITLE9=Wrecked Our Home (Chief Powhatan)
TTITLE10=Only In Dreams (Joe Cannonball Lewis)
TTITLE11=There'll Be No Teardrops Tonight (Hank Williams)
TTITLE12=I'll Never Let You Go (Hank Snow)
TTITLE13=Rose of My Heart (The Whitstein Brothers)
TTITLE14=Ragtime Annie (Traditional)
EXTD=
EXTT0=
EXTT1=
EXTT2=
EXTT3=
EXTT4=
EXTT5=
EXTT6=
EXTT7=
EXTT8=
EXTT9=
EXTT10=
EXTT11=
EXTT12=
EXTT13=
EXTT14=
PLAYORDER=
